<?xml version="1.0" standalone="no"?>
<!DOCTYPE svg PUBLIC "-//W3C//DTD SVG 20010904//EN"
 "http://www.w3.org/TR/2001/REC-SVG-20010904/DTD/svg10.dtd">
<svg version="1.0" xmlns="http://www.w3.org/2000/svg"
 width="700.000000pt" height="700.000000pt" viewBox="0 0 700.000000 700.000000"
 preserveAspectRatio="xMidYMid meet">
<metadata>
Created by potrace 1.14, written by Peter Selinger 2001-2017
</metadata>
<g transform="translate(0.000000,700.000000) scale(0.100000,-0.100000)"
fill="#000000" stroke="none">
<path d="M1630 6993 c-371 -65 -644 -315 -732 -670 l-21 -88 0 -2735 0 -2735
21 -88 c64 -259 236 -475 468 -587 80 -38 103 -46 209 -70 76 -18 172 -18
1945 -17 1026 2 1879 6 1895 10 17 4 59 17 95 28 298 95 516 329 592 636 l21
88 2 2705 c1 2170 -2 2721 -12 2788 -49 316 -260 574 -559 687 -146 55 -71 53
-2059 53 -1012 -1 -1851 -3 -1865 -5z m3488 -887 c51 -22 104 -81 120 -135 18
-58 16 -963 -2 -1013 -19 -52 -54 -93 -106 -120 l-45 -23 -1585 0 c-1520 0
-1587 1 -1622 18 -50 25 -87 64 -110 114 -17 39 -18 73 -18 525 1 371 4 490
14 513 29 67 92 120 159 134 16 3 731 6 1590 5 1478 0 1564 -1 1605 -18z
m-2613 -1757 c57 -29 100 -83 112 -144 5 -22 8 -152 8 -290 -1 -275 -3 -284
-68 -352 -55 -59 -93 -65 -390 -61 l-264 3 -48 30 c-36 22 -57 45 -77 84 l-28
53 0 263 c0 284 3 301 56 364 29 35 73 61 119 71 16 3 142 5 280 5 246 -1 251
-2 300 -26z m1289 12 c50 -20 85 -51 113 -99 l28 -47 2 -265 c1 -292 -2 -315
-61 -379 -61 -66 -81 -70 -364 -71 -151 0 -269 4 -292 10 -47 13 -100 56 -132
108 -23 36 -23 43 -23 317 l0 280 28 47 c32 55 75 88 133 103 58 14 530 11
568 -4z m1332 -9 c23 -12 53 -35 68 -53 53 -63 56 -81 56 -360 0 -156 -4 -269
-11 -286 -21 -56 -61 -102 -112 -128 -51 -25 -53 -25 -306 -25 -141 0 -272 5
-292 10 -50 14 -113 72 -134 122 -16 37 -18 79 -19 293 -2 292 4 326 66 386
62 60 91 65 385 63 242 -1 260 -2 299 -22z m-2679 -1295 c72 -11 156 -89 170
-156 4 -20 7 -151 7 -291 0 -243 -1 -257 -22 -297 -28 -54 -56 -81 -111 -105
-40 -18 -65 -20 -308 -20 -249 1 -267 2 -309 22 -56 27 -99 80 -113 137 -7 27
-11 141 -11 296 l1 252 27 50 c35 65 93 105 163 113 59 8 458 7 506 -1z m1324
-2 c52 -12 108 -54 137 -104 l27 -46 1 -264 c2 -294 -3 -323 -60 -385 -60 -63
-78 -66 -375 -67 -292 -1 -311 3 -370 60 -65 64 -66 68 -66 376 l0 280 27 46
c34 58 97 100 162 108 68 8 476 5 517 -4z m1303 1 c76 -14 139 -70 164 -145
17 -48 17 -1827 1 -1882 -16 -51 -62 -105 -112 -131 -40 -21 -54 -22 -312 -22
-300 1 -314 4 -378 67 -64 65 -62 31 -62 1039 l1 913 23 44 c37 70 94 111 171
120 64 8 458 6 504 -3z m-2606 -1315 c49 -14 108 -63 134 -114 20 -40 22 -57
23 -299 1 -290 -4 -324 -60 -381 -69 -71 -69 -71 -375 -71 -264 0 -277 1 -317
22 -51 27 -100 85 -114 135 -6 24 -9 141 -7 300 3 286 5 297 66 355 61 57 84
61 360 62 141 0 269 -4 290 -9z m1334 -10 c24 -10 57 -33 74 -50 58 -59 61
-80 60 -377 -1 -257 -2 -271 -24 -311 -27 -51 -76 -90 -134 -107 -30 -9 -122
-12 -299 -11 l-255 1 -45 26 c-53 31 -93 79 -107 129 -5 19 -9 154 -8 299 1
281 2 288 53 345 62 69 88 74 385 75 228 0 261 -2 300 -19z"/>
</g>
</svg>
