<svg version="1.0" xmlns="http://www.w3.org/2000/svg" width="933.333" height="933.333" viewBox="0 0 700 700"><path d="M163 .7c-37.1 6.5-64.4 31.5-73.2 67l-2.1 8.8v547l2.1 8.8c6.4 25.9 23.6 47.5 46.8 58.7 8 3.8 10.3 4.6 20.9 7 7.6 1.8 17.2 1.8 194.5 1.7 102.6-.2 187.9-.6 189.5-1 1.7-.4 5.9-1.7 9.5-2.8 29.8-9.5 51.6-32.9 59.2-63.6l2.1-8.8.2-270.5c.1-217-.2-272.1-1.2-278.8-4.9-31.6-26-57.4-55.9-68.7C540.8 0 548.3.2 349.5.2 248.3.3 164.4.5 163 .7zm348.8 88.7c5.1 2.2 10.4 8.1 12 13.5 1.8 5.8 1.6 96.3-.2 101.3-1.9 5.2-5.4 9.3-10.6 12l-4.5 2.3H350c-152 0-158.7-.1-162.2-1.8-5-2.5-8.7-6.4-11-11.4-1.7-3.9-1.8-7.3-1.8-52.5.1-37.1.4-49 1.4-51.3 2.9-6.7 9.2-12 15.9-13.4 1.6-.3 73.1-.6 159-.5 147.8 0 156.4.1 160.5 1.8zM250.5 265.1c5.7 2.9 10 8.3 11.2 14.4.5 2.2.8 15.2.8 29-.1 27.5-.3 28.4-6.8 35.2-5.5 5.9-9.3 6.5-39 6.1l-26.4-.3-4.8-3c-3.6-2.2-5.7-4.5-7.7-8.4l-2.8-5.3v-26.3c0-28.4.3-30.1 5.6-36.4 2.9-3.5 7.3-6.1 11.9-7.1 1.6-.3 14.2-.5 28-.5 24.6.1 25.1.2 30 2.6zm128.9-1.2c5 2 8.5 5.1 11.3 9.9l2.8 4.7.2 26.5c.1 29.2-.2 31.5-6.1 37.9-6.1 6.6-8.1 7-36.4 7.1-15.1 0-26.9-.4-29.2-1-4.7-1.3-10-5.6-13.2-10.8-2.3-3.6-2.3-4.3-2.3-31.7v-28l2.8-4.7c3.2-5.5 7.5-8.8 13.3-10.3 5.8-1.4 53-1.1 56.8.4zm133.2.9c2.3 1.2 5.3 3.5 6.8 5.3 5.3 6.3 5.6 8.1 5.6 36 0 15.6-.4 26.9-1.1 28.6-2.1 5.6-6.1 10.2-11.2 12.8-5.1 2.5-5.3 2.5-30.6 2.5-14.1 0-27.2-.5-29.2-1-5-1.4-11.3-7.2-13.4-12.2-1.6-3.7-1.8-7.9-1.9-29.3-.2-29.2.4-32.6 6.6-38.6 6.2-6 9.1-6.5 38.5-6.3 24.2.1 26 .2 29.9 2.2zM244.7 394.3c7.2 1.1 15.6 8.9 17 15.6.4 2 .7 15.1.7 29.1 0 24.3-.1 25.7-2.2 29.7-2.8 5.4-5.6 8.1-11.1 10.5-4 1.8-6.5 2-30.8 2-24.9-.1-26.7-.2-30.9-2.2-5.6-2.7-9.9-8-11.3-13.7-.7-2.7-1.1-14.1-1.1-29.6l.1-25.2 2.7-5c3.5-6.5 9.3-10.5 16.3-11.3 5.9-.8 45.8-.7 50.6.1zm132.4.2c5.2 1.2 10.8 5.4 13.7 10.4l2.7 4.6.1 26.4c.2 29.4-.3 32.3-6 38.5-6 6.3-7.8 6.6-37.5 6.7-29.2.1-31.1-.3-37-6-6.5-6.4-6.6-6.8-6.6-37.6v-28l2.7-4.6c3.4-5.8 9.7-10 16.2-10.8 6.8-.8 47.6-.5 51.7.4zm130.3-.1c7.6 1.4 13.9 7 16.4 14.5 1.7 4.8 1.7 182.7.1 188.2-1.6 5.1-6.2 10.5-11.2 13.1-4 2.1-5.4 2.2-31.2 2.2-30-.1-31.4-.4-37.8-6.7-6.4-6.5-6.2-3.1-6.2-103.9l.1-91.3 2.3-4.4c3.7-7 9.4-11.1 17.1-12 6.4-.8 45.8-.6 50.4.3zM246.8 525.9c4.9 1.4 10.8 6.3 13.4 11.4 2 4 2.2 5.7 2.3 29.9.1 29-.4 32.4-6 38.1-6.9 7.1-6.9 7.1-37.5 7.1-26.4 0-27.7-.1-31.7-2.2-5.1-2.7-10-8.5-11.4-13.5-.6-2.4-.9-14.1-.7-30 .3-28.6.5-29.7 6.6-35.5 6.1-5.7 8.4-6.1 36-6.2 14.1 0 26.9.4 29 .9zm133.4 1c2.4 1 5.7 3.3 7.4 5 5.8 5.9 6.1 8 6 37.7-.1 25.7-.2 27.1-2.4 31.1-2.7 5.1-7.6 9-13.4 10.7-3 .9-12.2 1.2-29.9 1.1l-25.5-.1-4.5-2.6c-5.3-3.1-9.3-7.9-10.7-12.9-.5-1.9-.9-15.4-.8-29.9.1-28.1.2-28.8 5.3-34.5 6.2-6.9 8.8-7.4 38.5-7.5 22.8 0 26.1.2 30 1.9z"/></svg>